<?xml version="1.0" standalone="no"?>
<svg viewBox="0 0 200 200" xmlns="http://www.w3.org/2000/svg">
  <path fill="#FFD700" d="M43.5,-73.9C57.7,-67.2,71.5,-58.2,80.4,-45.5C89.3,-32.8,93.4,-16.4,92.1,-0.8C90.8,14.9,84.1,29.8,75.1,42.4C66.2,55.1,55,65.5,42.1,74.5C29.2,83.5,14.6,90.9,-0.3,91.4C-15.2,91.9,-30.4,85.4,-44.2,77C-58.1,68.6,-70.6,58.3,-78.3,45.2C-85.9,32,-88.7,16,-88.8,-0.1C-88.9,-16.1,-86.4,-32.3,-79.4,-46.6C-72.5,-61,-61.1,-73.6,-47.1,-80.4C-33.2,-87.2,-16.6,-88.2,-1,-86.5C14.7,-84.8,29.3,-80.5,43.5,-73.9Z" transform="translate(100 100)" />
</svg>
